<mxfile host="Electron" agent="Mozilla/5.0 (Windows NT 10.0; Win64; x64) AppleWebKit/537.36 (KHTML, like Gecko) draw.io/26.0.9 Chrome/128.0.6613.186 Electron/32.2.5 Safari/537.36" version="26.0.9">
  <diagram name="Page-1" id="Pfw512TBdEc4AL0B_62l">
    <mxGraphModel dx="340" dy="896" grid="1" gridSize="10" guides="1" tooltips="1" connect="1" arrows="1" fold="1" page="1" pageScale="1" pageWidth="827" pageHeight="1169" math="0" shadow="0">
      <root>
        <mxCell id="0" />
        <mxCell id="1" parent="0" />
        <mxCell id="2" value="" style="rounded=0;whiteSpace=wrap;html=1;strokeColor=default;fillColor=default;movable=1;resizable=1;rotatable=1;deletable=1;editable=1;locked=0;connectable=1;" parent="1" vertex="1">
          <mxGeometry x="910" y="150" width="640" height="510" as="geometry" />
        </mxCell>
        <mxCell id="IJmXjw1ShNEismxhBZoX-8" style="edgeStyle=orthogonalEdgeStyle;rounded=0;orthogonalLoop=1;jettySize=auto;html=1;exitX=0.5;exitY=1;exitDx=0;exitDy=0;entryX=0.5;entryY=0;entryDx=0;entryDy=0;" parent="1" source="IJmXjw1ShNEismxhBZoX-3" target="IJmXjw1ShNEismxhBZoX-4" edge="1">
          <mxGeometry relative="1" as="geometry" />
        </mxCell>
        <mxCell id="IJmXjw1ShNEismxhBZoX-3" value="&lt;b&gt;&lt;font style=&quot;font-size: 24px;&quot;&gt;Start&lt;/font&gt;&lt;/b&gt;" style="rounded=1;whiteSpace=wrap;html=1;arcSize=50;strokeWidth=2;" parent="1" vertex="1">
          <mxGeometry x="978.96" y="190" width="103.25" height="50" as="geometry" />
        </mxCell>
        <mxCell id="Rjor2WSi_NKT8hvH7R_Y-3" style="edgeStyle=orthogonalEdgeStyle;rounded=0;orthogonalLoop=1;jettySize=auto;html=1;exitX=0.5;exitY=1;exitDx=0;exitDy=0;entryX=0.5;entryY=0;entryDx=0;entryDy=0;" parent="1" source="IJmXjw1ShNEismxhBZoX-4" target="lcP_tkz22S2U3AyWu_y0-2" edge="1">
          <mxGeometry relative="1" as="geometry">
            <mxPoint x="980" y="390" as="targetPoint" />
          </mxGeometry>
        </mxCell>
        <mxCell id="IJmXjw1ShNEismxhBZoX-4" value="&lt;b&gt;&lt;font style=&quot;font-size: 24px;&quot;&gt;&lt;font style=&quot;&quot;&gt;En&lt;/font&gt;ter c&lt;/font&gt;&lt;/b&gt;" style="shape=parallelogram;perimeter=parallelogramPerimeter;whiteSpace=wrap;html=1;fixedSize=1;align=center;strokeWidth=2;" parent="1" vertex="1">
          <mxGeometry x="970" y="280" width="120" height="50" as="geometry" />
        </mxCell>
        <mxCell id="IJmXjw1ShNEismxhBZoX-10" style="edgeStyle=orthogonalEdgeStyle;rounded=0;orthogonalLoop=1;jettySize=auto;html=1;entryX=0.5;entryY=0;entryDx=0;entryDy=0;exitX=0.5;exitY=1;exitDx=0;exitDy=0;" parent="1" source="lcP_tkz22S2U3AyWu_y0-2" target="IJmXjw1ShNEismxhBZoX-6" edge="1">
          <mxGeometry relative="1" as="geometry">
            <mxPoint x="1030" y="450" as="sourcePoint" />
            <mxPoint x="1026.24" y="620" as="targetPoint" />
          </mxGeometry>
        </mxCell>
        <mxCell id="lcP_tkz22S2U3AyWu_y0-7" value="&lt;span style=&quot;font-size: 12px;&quot;&gt;&lt;b&gt;Y&lt;/b&gt;&lt;/span&gt;" style="edgeLabel;html=1;align=center;verticalAlign=middle;resizable=0;points=[];" parent="IJmXjw1ShNEismxhBZoX-10" vertex="1" connectable="0">
          <mxGeometry x="-0.3035" relative="1" as="geometry">
            <mxPoint y="6" as="offset" />
          </mxGeometry>
        </mxCell>
        <mxCell id="IJmXjw1ShNEismxhBZoX-11" style="edgeStyle=orthogonalEdgeStyle;rounded=0;orthogonalLoop=1;jettySize=auto;html=1;exitX=0.5;exitY=1;exitDx=0;exitDy=0;entryX=0.5;entryY=0;entryDx=0;entryDy=0;" parent="1" source="IJmXjw1ShNEismxhBZoX-6" target="IJmXjw1ShNEismxhBZoX-7" edge="1">
          <mxGeometry relative="1" as="geometry" />
        </mxCell>
        <mxCell id="IJmXjw1ShNEismxhBZoX-6" value="&lt;span style=&quot;font-size: 24px;&quot;&gt;&lt;b&gt;Lowercase&lt;/b&gt;&lt;/span&gt;" style="shape=parallelogram;perimeter=parallelogramPerimeter;whiteSpace=wrap;html=1;fixedSize=1;align=center;strokeWidth=2;" parent="1" vertex="1">
          <mxGeometry x="950" y="470" width="160" height="50" as="geometry" />
        </mxCell>
        <mxCell id="IJmXjw1ShNEismxhBZoX-7" value="&lt;span style=&quot;font-size: 24px;&quot;&gt;&lt;b&gt;End&lt;/b&gt;&lt;/span&gt;" style="rounded=1;whiteSpace=wrap;html=1;arcSize=50;strokeWidth=2;" parent="1" vertex="1">
          <mxGeometry x="990.0000000000001" y="570" width="80" height="50" as="geometry" />
        </mxCell>
        <mxCell id="lcP_tkz22S2U3AyWu_y0-4" style="edgeStyle=orthogonalEdgeStyle;rounded=0;orthogonalLoop=1;jettySize=auto;html=1;entryX=0;entryY=0.5;entryDx=0;entryDy=0;exitX=1;exitY=0.5;exitDx=0;exitDy=0;" parent="1" source="lcP_tkz22S2U3AyWu_y0-2" target="mJFjYLEd6i3kxsFjLQBA-2" edge="1">
          <mxGeometry relative="1" as="geometry">
            <mxPoint x="1140" y="510" as="sourcePoint" />
          </mxGeometry>
        </mxCell>
        <mxCell id="lcP_tkz22S2U3AyWu_y0-5" value="&lt;span style=&quot;font-size: 12px;&quot;&gt;&lt;b&gt;N&lt;/b&gt;&lt;/span&gt;" style="edgeLabel;html=1;align=center;verticalAlign=middle;resizable=0;points=[];" parent="lcP_tkz22S2U3AyWu_y0-4" vertex="1" connectable="0">
          <mxGeometry x="-0.2768" y="1" relative="1" as="geometry">
            <mxPoint x="3" y="1" as="offset" />
          </mxGeometry>
        </mxCell>
        <mxCell id="lcP_tkz22S2U3AyWu_y0-2" value="&lt;font style=&quot;&quot;&gt;&lt;span style=&quot;font-size: 24px;&quot;&gt;&lt;b&gt;a&amp;nbsp;&lt;/b&gt;&lt;/span&gt;&lt;/font&gt;&lt;font style=&quot;background-color: transparent; color: light-dark(rgb(0, 0, 0), rgb(255, 255, 255));&quot;&gt;&lt;span style=&quot;font-size: 24px;&quot;&gt;&lt;b&gt;≤&amp;nbsp;&lt;/b&gt;&lt;/span&gt;&lt;/font&gt;&lt;b style=&quot;background-color: transparent; color: light-dark(rgb(0, 0, 0), rgb(255, 255, 255)); font-size: 24px;&quot;&gt;c&amp;nbsp;&lt;/b&gt;&lt;span style=&quot;background-color: transparent; color: light-dark(rgb(0, 0, 0), rgb(255, 255, 255)); font-size: 24px;&quot;&gt;&lt;b&gt;≤&amp;nbsp;&lt;/b&gt;&lt;/span&gt;&lt;span style=&quot;background-color: transparent; color: light-dark(rgb(0, 0, 0), rgb(255, 255, 255)); font-size: 24px;&quot;&gt;&lt;b&gt;z&lt;/b&gt;&lt;/span&gt;&lt;b style=&quot;background-color: transparent; color: light-dark(rgb(0, 0, 0), rgb(255, 255, 255)); font-size: 24px;&quot;&gt;?&lt;/b&gt;" style="rhombus;whiteSpace=wrap;html=1;strokeWidth=2;align=center;" parent="1" vertex="1">
          <mxGeometry x="950" y="370" width="160" height="60" as="geometry" />
        </mxCell>
        <mxCell id="Rjor2WSi_NKT8hvH7R_Y-6" style="edgeStyle=orthogonalEdgeStyle;rounded=0;orthogonalLoop=1;jettySize=auto;html=1;exitX=1;exitY=0.5;exitDx=0;exitDy=0;entryX=0.5;entryY=0;entryDx=0;entryDy=0;" parent="1" source="mJFjYLEd6i3kxsFjLQBA-2" target="cZjHZmKmUn31UmrTM9jL-4" edge="1">
          <mxGeometry relative="1" as="geometry">
            <mxPoint x="1360" y="400" as="targetPoint" />
          </mxGeometry>
        </mxCell>
        <mxCell id="mJFjYLEd6i3kxsFjLQBA-7" value="&lt;b&gt;N&lt;/b&gt;" style="edgeLabel;html=1;align=center;verticalAlign=middle;resizable=0;points=[];" parent="Rjor2WSi_NKT8hvH7R_Y-6" vertex="1" connectable="0">
          <mxGeometry x="-0.1551" y="-1" relative="1" as="geometry">
            <mxPoint as="offset" />
          </mxGeometry>
        </mxCell>
        <mxCell id="mJFjYLEd6i3kxsFjLQBA-4" style="edgeStyle=orthogonalEdgeStyle;rounded=0;orthogonalLoop=1;jettySize=auto;html=1;exitX=0.5;exitY=1;exitDx=0;exitDy=0;entryX=0.5;entryY=0;entryDx=0;entryDy=0;" parent="1" source="mJFjYLEd6i3kxsFjLQBA-2" target="cZjHZmKmUn31UmrTM9jL-2" edge="1">
          <mxGeometry relative="1" as="geometry">
            <mxPoint x="1234.12" y="480" as="targetPoint" />
          </mxGeometry>
        </mxCell>
        <mxCell id="mJFjYLEd6i3kxsFjLQBA-5" value="&lt;b&gt;Y&lt;/b&gt;" style="edgeLabel;html=1;align=center;verticalAlign=middle;resizable=0;points=[];" parent="mJFjYLEd6i3kxsFjLQBA-4" vertex="1" connectable="0">
          <mxGeometry x="-0.2632" y="-2" relative="1" as="geometry">
            <mxPoint x="2" y="5" as="offset" />
          </mxGeometry>
        </mxCell>
        <mxCell id="mJFjYLEd6i3kxsFjLQBA-2" value="&lt;span style=&quot;font-size: 24px;&quot;&gt;&lt;b&gt;A&amp;nbsp;&lt;/b&gt;&lt;/span&gt;&lt;font style=&quot;color: light-dark(rgb(0, 0, 0), rgb(255, 255, 255)); background-color: transparent;&quot;&gt;&lt;span style=&quot;font-size: 24px;&quot;&gt;&lt;b&gt;≤&amp;nbsp;&lt;/b&gt;&lt;/span&gt;&lt;/font&gt;&lt;b style=&quot;color: light-dark(rgb(0, 0, 0), rgb(255, 255, 255)); background-color: transparent; font-size: 24px;&quot;&gt;c&amp;nbsp;&lt;/b&gt;&lt;span style=&quot;color: light-dark(rgb(0, 0, 0), rgb(255, 255, 255)); background-color: transparent; font-size: 24px;&quot;&gt;&lt;b&gt;≤&amp;nbsp;&lt;/b&gt;&lt;/span&gt;&lt;span style=&quot;color: light-dark(rgb(0, 0, 0), rgb(255, 255, 255)); background-color: transparent; font-size: 24px;&quot;&gt;&lt;b&gt;Z&lt;/b&gt;&lt;/span&gt;&lt;b style=&quot;color: light-dark(rgb(0, 0, 0), rgb(255, 255, 255)); background-color: transparent; font-size: 24px;&quot;&gt;?&lt;/b&gt;" style="rhombus;whiteSpace=wrap;html=1;strokeWidth=2;align=center;" parent="1" vertex="1">
          <mxGeometry x="1150" y="370" width="160" height="60" as="geometry" />
        </mxCell>
        <mxCell id="mJFjYLEd6i3kxsFjLQBA-6" style="edgeStyle=orthogonalEdgeStyle;rounded=0;orthogonalLoop=1;jettySize=auto;html=1;exitX=0.5;exitY=1;exitDx=0;exitDy=0;" parent="1" source="cZjHZmKmUn31UmrTM9jL-2" edge="1">
          <mxGeometry relative="1" as="geometry">
            <mxPoint x="1030" y="550" as="targetPoint" />
            <Array as="points">
              <mxPoint x="1230" y="550" />
            </Array>
            <mxPoint x="1240" y="530" as="sourcePoint" />
          </mxGeometry>
        </mxCell>
        <mxCell id="cZjHZmKmUn31UmrTM9jL-2" value="&lt;span style=&quot;font-size: 24px;&quot;&gt;&lt;b&gt;Uppercase&lt;/b&gt;&lt;/span&gt;" style="shape=parallelogram;perimeter=parallelogramPerimeter;whiteSpace=wrap;html=1;fixedSize=1;align=center;strokeWidth=2;" vertex="1" parent="1">
          <mxGeometry x="1150" y="470" width="160" height="50" as="geometry" />
        </mxCell>
        <mxCell id="cZjHZmKmUn31UmrTM9jL-5" style="edgeStyle=orthogonalEdgeStyle;rounded=0;orthogonalLoop=1;jettySize=auto;html=1;exitX=0.5;exitY=1;exitDx=0;exitDy=0;" edge="1" parent="1" source="cZjHZmKmUn31UmrTM9jL-4">
          <mxGeometry relative="1" as="geometry">
            <mxPoint x="1230" y="550" as="targetPoint" />
            <Array as="points">
              <mxPoint x="1430" y="550" />
            </Array>
          </mxGeometry>
        </mxCell>
        <mxCell id="cZjHZmKmUn31UmrTM9jL-4" value="&lt;span style=&quot;font-size: 24px;&quot;&gt;&lt;b&gt;Not a letter&lt;/b&gt;&lt;/span&gt;" style="shape=parallelogram;perimeter=parallelogramPerimeter;whiteSpace=wrap;html=1;fixedSize=1;align=center;strokeWidth=2;" vertex="1" parent="1">
          <mxGeometry x="1350" y="470" width="160" height="50" as="geometry" />
        </mxCell>
      </root>
    </mxGraphModel>
  </diagram>
</mxfile>
